# xmcd
#
# Track frame offsets: 
#        150
#        7960
#        15640
#        27340
#        34660
#        43000
#        52715
#        58630
#        67375
#        75325
#
# Disc length: 1123 seconds
#
# Revision: 1
# Processed by: cddbd v1.4PL0 Copyright (c) Steve Scherf et al.
# Submitted via: ExactAudioCopy v0.90b4
#
DISCID=7204610a
DTITLE=Dale Watson - Dalevis
DYEAR=2000
DGENRE=Country
TTITLE0=Blue Moon
TTITLE1=Tomorrow Night
TTITLE2=I Was The One
TTITLE3=Loving You
TTITLE4=Big Boss Man
TTITLE5=I Love You Because
TTITLE6=When My Blue Moon Turns To Gold
TTITLE7=Are You Sincere
TTITLE8=That's Alright Mama
TTITLE9=You'll Cry Too
EXTD=
EXTT0=
EXTT1=
EXTT2=
EXTT3=
EXTT4=
EXTT5=
EXTT6=
EXTT7=
EXTT8=
EXTT9=
PLAYORDER=
